# xmcd
#
# Track frame offsets:
#	150
#	20617
#	33482
#	51305
#	62970
#	78262
#	92487
#	108507
#	127482
#	139680
#	152927
#	170085
#	188102
#	205612
#
# Disc length: 2933 seconds
#
# Revision: 0
# Processed by: cddbd v1.5.2PL0 Copyright (c) Steve Scherf et al.
# Submitted via: audiograbber 1.83.01
#
DISCID=c90b730e
DTITLE=James Taylor and B.J. Thomas - HITS OF THE CENTURY
DYEAR=1900
DGENRE=
TTITLE0=James Taylor - YOU´VE GOT A FRIEND
TTITLE1=James Taylo - SWEET BABY JAMES
TTITLE2=James Taylo - CAROLINA ON M MIND
TTITLE3=James Taylo - DON´T LET ME BE LONEL TONIGHT
TTITLE4=James Taylo - FIRE AND RAIN
TTITLE5=James Taylo - SOMEHING IN THE WAY SHE MOVES
TTITLE6=James Taylo - WALKING MAN
TTITLE7=B.J. Thomas - ROCK AND ROLL LULLABY
TTITLE8=B.J. Thomas - EVERBODY´S OUT OF TOWN
TTITLE9=B.J. Thomas - I JUST CAN´T HELP BELIEVING
TTITLE10=B.J. Thomas - LITTLE GREEN APPLES
TTITLE11=B.J. Thomas - LONG AGO TOMORROW
TTITLE12=B.J. Thomas - TAT´S WHAT FRIENDS ARE FOR
TTITLE13=B.J. Thomas - RAINDROS KEEP FALLING ON MY HEAD
EXTD=kiroiva@hotmail.com
EXTT0=
EXTT1=
EXTT2=
EXTT3=
EXTT4=
EXTT5=
EXTT6=
EXTT7=
EXTT8=
EXTT9=
EXTT10=
EXTT11=
EXTT12=
EXTT13=
PLAYORDER=
